<svg width="512" height="512" viewBox="0 0 512 512" fill="none" xmlns="http://www.w3.org/2000/svg">
  <!-- Background circle -->
  <circle cx="256" cy="256" r="240" fill="#1e40af" stroke="#3b82f6" stroke-width="32"/>

  <!-- World map outline -->
  <path d="M256 16 C 397.4 16, 512 130.6, 512 272 C 512 413.4, 397.4 528, 256 528 C 114.6 528, 0 413.4, 0 272 C 0 130.6, 114.6 16, 256 16 Z" fill="none" stroke="#ffffff" stroke-width="8" opacity="0.9"/>

  <!-- Simplified world continents -->
  <!-- North America -->
  <path d="M120 180 L140 170 L160 175 L170 190 L160 210 L140 205 L130 195 Z" fill="#ffffff" opacity="0.8"/>
  <!-- South America -->
  <path d="M170 240 L180 220 L190 225 L195 250 L185 270 L175 265 Z" fill="#ffffff" opacity="0.8"/>
  <!-- Europe -->
  <path d="M240 160 L260 155 L275 165 L270 180 L255 175 Z" fill="#ffffff" opacity="0.8"/>
  <!-- Africa -->
  <path d="M260 200 L275 190 L285 210 L280 230 L265 225 Z" fill="#ffffff" opacity="0.8"/>
  <!-- Asia -->
  <path d="M300 140 L340 135 L360 150 L350 170 L320 165 Z" fill="#ffffff" opacity="0.8"/>
  <!-- Australia -->
  <path d="M340 280 L360 275 L370 285 L355 295 L340 290 Z" fill="#ffffff" opacity="0.8"/>

  <!-- Clock hands -->
  <!-- Hour hand -->
  <line x1="256" y1="256" x2="256" y2="180" stroke="#ffffff" stroke-width="8" stroke-linecap="round"/>
  <!-- Minute hand -->
  <line x1="256" y1="256" x2="320" y2="220" stroke="#ffffff" stroke-width="6" stroke-linecap="round"/>
  <!-- Second hand -->
  <line x1="256" y1="256" x2="280" y2="160" stroke="#fbbf24" stroke-width="3" stroke-linecap="round"/>

  <!-- Center dot -->
  <circle cx="256" cy="256" r="12" fill="#ffffff"/>
  <circle cx="256" cy="256" r="6" fill="#1e40af"/>

  <!-- Time zone markers (small dots around the edge) -->
  <circle cx="400" cy="256" r="4" fill="#ffffff" opacity="0.7"/>
  <circle cx="112" cy="256" r="4" fill="#ffffff" opacity="0.7"/>
  <circle cx="256" cy="112" r="4" fill="#ffffff" opacity="0.7"/>
  <circle cx="256" cy="400" r="4" fill="#ffffff" opacity="0.7"/>
  <circle cx="350" cy="150" r="4" fill="#ffffff" opacity="0.7"/>
  <circle cx="162" cy="362" r="4" fill="#ffffff" opacity="0.7"/>
</svg>